<?xml version="1.0" encoding="utf-8"?>
<!-- Generator: Adobe Illustrator 25.0.0, SVG Export Plug-In . SVG Version: 6.00 Build 0)  -->
<svg version="1.1" id="Layer_1" xmlns="http://www.w3.org/2000/svg" xmlns:xlink="http://www.w3.org/1999/xlink" x="0px" y="0px"
	 viewBox="0 0 1597.01 897.04" style="enable-background:new 0 0 1597.01 897.04;" xml:space="preserve">
<style type="text/css">
	.st0{fill:#567995;}
</style>
<g>
	<path class="st0" d="M694.63,174.71c-34.37-39.79-76-72.43-122.65-95.55C521.9,54.34,466.03,40.47,407.12,40.47
		c-215.4,0-390.01,185.28-390.01,413.82s174.61,413.84,390.01,413.84c58.92,0,114.78-13.86,164.86-38.7
		c46.66-23.12,88.29-55.77,122.66-95.56c63.65-73.64,102.47-171.81,102.47-279.57C797.11,346.51,758.28,248.35,694.63,174.71z
		 M673.87,459.98c-1.67,88.26-41.24,166.3-101.89,216.92c-34.95,29.19-76.91,49.28-122.65,56.99c-15.47,2.61-31.36,3.8-47.57,3.47
		c-147.33-3.13-264.36-132.42-261.41-288.73c2.96-156.32,124.79-280.51,272.11-277.37c12.52,0.27,24.82,1.45,36.86,3.47
		c45.89,7.74,87.8,27.86,122.66,56.97C635.48,284.71,675.62,367.63,673.87,459.98z"/>
</g>
<path class="st0" d="M1549.47,454.29L1549.47,454.29c0,36.37-26.9,65.86-60.09,65.86h-264.17c2.95-21.45,4.49-43.44,4.49-65.86
	c0-22.42-1.54-44.41-4.49-65.86h264.17C1522.57,388.43,1549.47,417.92,1549.47,454.29z"/>
<path class="st0" d="M1549.47,662.98L1549.47,662.98c0,72.74-58.97,131.71-131.71,131.71h-333.3c15.18-16.07,29.12-33.46,41.64-52
	c33.51-49.58,89.06-79.71,148.9-79.71H1549.47z"/>
<path class="st0" d="M1174.56,388.43c-5.01-33.28-13.76-65.24-25.8-95.37c-19.79-49.59-48.43-94.24-83.83-131.71
	C994.38,86.65,897.02,40.47,789.47,40.47c-58.92,0-114.78,13.86-164.86,38.69c46.65,23.12,88.28,55.76,122.65,95.55
	c15.47-2.62,31.36-3.81,47.57-3.47c64.05,1.36,122.38,26.57,167.6,67.48c17.59,15.89,33.19,34.18,46.38,54.34
	c18.61,28.46,32.42,60.71,40.2,95.37c5.16,22.91,7.68,46.88,7.21,71.54c-0.39,20.7-2.86,40.83-7.2,60.18
	c-7.8,34.74-21.62,66.95-40.19,95.37c-13.21,20.19-28.83,38.45-46.41,54.34c-47.93,43.33-110.41,68.93-178.31,67.48
	c-12.52-0.28-24.82-1.46-36.86-3.48c-34.37,39.79-76,72.45-122.66,95.56c50.08,24.84,105.95,38.7,164.86,38.7
	c107.56,0,204.93-46.2,275.48-120.9c35.39-37.47,64.03-82.12,83.81-131.71c12.03-30.12,20.78-62.09,25.8-95.37
	c3.23-21.45,4.92-43.44,4.92-65.86C1179.48,431.88,1177.79,409.88,1174.56,388.43z"/>
<path class="st0" d="M1549.44,241.96L1549.44,241.96c-0.63-72.74-59.43-131.2-131.34-130.57l-329.47,2.86
	c15.14,15.94,29.07,33.21,41.62,51.64c33.56,49.29,88.73,78.94,147.89,78.43L1549.44,241.96z"/>
</svg>
